 <svg  version="1.0" xmlns="http://www.w3.org/2000/svg"  width="300.000000pt" height="194.000000pt" viewBox="0 0 300.000000 194.000000"  preserveAspectRatio="xMidYMid meet">  <g transform="translate(0.000000,194.000000) scale(0.100000,-0.100000)" fill="#ffffff" stroke="none"> <path d="M1368 1754 c-51 -44 -148 -92 -201 -101 -25 -4 -44 -14 -54 -30 -15 -23 -15 -27 2 -59 21 -40 15 -52 -20 -36 -64 29 -108 1 -107 -68 1 -47 -11 -56 -53 -40 -24 9 -32 8 -47 -8 -11 -10 -20 -32 -20 -49 -1 -24 -7 -31 -32 -39 -22 -6 -33 -18 -40 -39 -27 -92 -53 -152 -78 -180 -42 -49 -51 -81 -31 -115 15 -26 15 -30 -1 -64 -19 -40 -15 -52 34 -116 28 -37 70 -129 70 -154 0 -24 29 -46 61 -46 l29 0 -6 -55 c-6 -52 -5 -55 20 -66 20 -9 32 -9 52 0 35 16 44 7 44 -43 0 -64 28 -80 108 -61 26 6 32 4 32 -9 0 -9 -4 -16 -10 -16 -14 0 -12 -66 3 -78 6 -5 28 -13 47 -17 51 -11 161 -68 199 -104 38 -36 68 -39 104 -11 25 20 25 20 50 0 37 -29 59 -25 113 20 45 37 183 100 219 100 8 0 21 11 27 25 9 21 8 32 -5 60 -20 42 -9 52 34 30 58 -31 112 14 95 79 -7 27 19 45 38 26 16 -16 51 -12 71 10 17 19 17 32 0 88 -7 20 -4 22 28 22 39 0 52 12 63 55 14 58 45 119 79 157 39 42 44 75 19 113 -14 22 -14 26 0 47 24 34 20 62 -16 105 -34 40 -72 117 -82 165 -8 37 -32 58 -68 58 -25 0 -29 3 -23 18 20 46 17 70 -9 88 -22 13 -32 15 -51 6 -39 -18 -57 -6 -49 34 12 65 -40 104 -97 73 -12 -6 -27 -8 -36 -5 -13 6 -13 9 1 31 32 49 12 86 -54 100 -52 11 -152 59 -175 85 -11 12 -33 29 -48 37 -26 13 -31 12 -63 -6 -34 -20 -34 -20 -67 -1 -43 27 -48 26 -99 -16z m92 -14 c25 -25 25 -45 3 -68 -10 -9 -33 -52 -52 -95 -32 -74 -33 -82 -29 -170 3 -51 10 -102 16 -113 8 -15 8 -27 -1 -45 -13 -25 -11 -59 3 -59 4 0 10 -7 14 -15 7 -19 -20 -46 -39 -39 -17 7 -20 35 -5 50 6 6 8 19 4 29 -6 16 -8 15 -20 -6 -7 -13 -13 -41 -14 -61 0 -33 3 -38 34 -48 54 -18 60 -74 10 -86 -30 -8 -44 4 -58 48 -12 36 -40 45 -103 33 -46 -8 -31 -27 16 -19 41 7 55 -3 45 -30 -8 -20 -54 -21 -54 -2 0 18 -39 25 -62 12 -12 -7 -28 -6 -51 2 -18 7 -68 12 -110 12 -68 0 -86 -4 -147 -35 -37 -19 -71 -39 -75 -45 -11 -18 -63 -12 -75 9 -15 29 -13 40 15 65 27 25 98 183 91 202 -7 19 19 48 38 41 24 -10 31 -35 13 -55 -8 -9 -18 -31 -21 -47 -5 -25 -3 -32 16 -40 36 -16 29 -46 -17 -69 -26 -14 -41 -29 -43 -44 -4 -28 -4 -28 62 5 38 19 56 33 59 50 2 13 0 26 -4 29 -5 3 -9 48 -9 101 0 72 -4 101 -15 113 -29 32 13 76 44 46 12 -12 12 -20 3 -38 -6 -13 -12 -59 -14 -104 -3 -81 -3 -81 14 -53 15 25 24 29 64 29 l47 0 -37 28 c-31 23 -36 31 -31 56 3 16 5 44 5 62 0 19 5 34 11 34 7 0 10 -15 7 -41 -3 -35 1 -46 24 -71 22 -24 31 -28 42 -19 7 6 20 9 28 6 19 -8 68 32 68 55 0 10 4 21 9 24 15 10 -1 57 -25 72 -15 10 -40 14 -75 12 -40 -2 -54 1 -63 15 -8 12 -8 22 0 35 15 23 52 28 60 8 5 -13 24 -16 104 -16 55 0 101 4 104 8 3 5 18 7 34 4 27 -4 29 -2 25 22 -4 18 -12 26 -27 27 -47 2 -82 -4 -97 -17 -21 -19 -48 -18 -56 4 -4 9 -16 24 -26 33 -17 13 -18 19 -7 38 8 16 18 21 31 18 25 -7 201 76 234 109 29 29 39 30 65 4z m145 -6 c27 -29 185 -105 224 -107 42 -3 48 -29 16 -71 -30 -39 -46 -44 -65 -21 -7 8 -22 14 -34 14 -33 0 -85 7 -90 12 -3 3 -7 14 -9 25 -5 34 -42 78 -60 71 -14 -5 -12 -14 11 -69 38 -88 40 -91 74 -86 16 3 31 1 34 -4 3 -4 49 -8 103 -8 77 0 101 3 111 15 28 34 87 -6 64 -42 -9 -14 -23 -17 -67 -15 -49 3 -59 0 -82 -22 -29 -29 -31 -42 -10 -83 22 -44 45 -60 87 -61 51 -2 78 27 78 85 0 64 18 52 22 -14 3 -56 2 -59 -32 -90 l-35 -32 41 -1 c45 0 70 -15 77 -45 3 -11 5 17 6 63 1 59 -3 89 -14 106 -14 22 -14 25 0 40 20 20 29 20 46 0 10 -12 10 -20 1 -35 -7 -10 -12 -51 -12 -91 0 -40 -5 -90 -11 -111 -15 -54 -5 -73 53 -102 40 -20 53 -23 59 -13 13 20 7 28 -36 53 -44 24 -52 53 -20 70 23 11 22 53 -1 62 -18 7 -18 37 0 52 19 16 46 3 46 -23 0 -34 66 -176 89 -192 23 -17 28 -53 9 -72 -16 -16 -65 -15 -75 2 -4 8 -39 28 -78 46 -67 30 -74 31 -160 25 -87 -6 -131 -7 -167 -5 -9 1 -26 -8 -38 -20 -20 -20 -24 -21 -37 -7 -9 9 -13 23 -9 32 5 13 14 15 46 10 24 -4 40 -3 40 3 0 22 -76 30 -109 12 -10 -5 -21 -23 -24 -39 -11 -55 -87 -51 -87 4 0 27 14 40 54 49 26 6 28 5 17 -8 -8 -9 -20 -16 -27 -16 -8 0 -14 -9 -14 -20 0 -11 6 -20 14 -20 20 0 45 54 40 82 -15 68 -28 108 -35 108 -13 0 -11 -27 3 -50 10 -16 10 -23 -4 -36 -14 -14 -20 -15 -32 -4 -20 16 -20 29 1 52 14 16 15 23 4 53 -8 23 -9 40 -2 53 5 10 13 56 16 103 7 80 6 88 -26 164 -18 44 -41 89 -51 101 -24 27 -23 60 4 78 30 21 35 20 63 -10z m-78 -101 c29 -40 63 -138 63 -182 0 -21 -5 -63 -12 -92 -6 -30 -12 -100 -12 -156 -1 -56 -4 -105 -8 -109 -17 -16 -7 -66 17 -89 29 -30 64 -32 96 -6 18 14 27 16 41 8 13 -9 26 -8 50 2 18 7 42 12 53 11 40 -4 51 -2 117 16 58 16 73 17 115 6 65 -17 138 -63 138 -87 0 -12 -21 -29 -63 -53 -55 -30 -72 -34 -128 -33 -36 1 -79 8 -94 16 -16 8 -49 15 -72 15 -103 1 -145 6 -169 23 -54 36 -118 -10 -105 -75 4 -18 7 -76 8 -128 0 -52 6 -120 14 -150 8 -30 14 -76 14 -102 0 -57 -32 -147 -67 -188 l-25 -30 -19 24 c-11 13 -30 48 -44 78 -29 63 -34 165 -10 244 9 32 12 60 6 79 -4 18 -4 39 2 53 7 15 7 30 -1 47 -9 20 -8 30 5 54 21 35 9 70 -33 97 -26 17 -28 17 -63 -3 -25 -14 -47 -19 -74 -15 -21 2 -44 -1 -51 -7 -9 -8 -28 -10 -49 -6 -21 4 -47 1 -72 -9 -61 -26 -140 -21 -213 14 -94 44 -93 72 3 116 58 28 156 32 219 9 22 -8 52 -11 68 -8 17 3 40 0 54 -8 19 -10 32 -10 53 -3 22 9 32 8 50 -8 32 -25 67 -23 96 7 29 28 32 61 9 93 -11 16 -13 27 -6 35 12 14 6 155 -8 206 -18 66 -12 156 15 223 24 58 50 98 65 98 3 0 15 -12 27 -27z m-388 -222 c13 -8 13 -15 2 -49 -12 -35 -18 -41 -48 -44 -41 -5 -63 16 -63 60 0 21 6 32 18 35 30 8 77 7 91 -2z m828 1 c8 -5 8 -17 -2 -45 -7 -21 -15 -40 -17 -42 -5 -5 -30 -8 -53 -6 -29 2 -59 74 -38 94 9 9 95 9 110 -1z m-1179 -489 c9 -10 50 -33 91 -52 l74 -34 86 12 c107 14 121 15 148 6 15 -5 27 -1 39 14 22 25 37 27 54 6 22 -27 -5 -46 -54 -39 -30 5 -38 4 -30 -5 14 -16 99 -18 117 -3 8 7 17 25 20 41 7 36 33 46 64 26 35 -24 27 -56 -21 -78 -38 -18 -38 -19 -33 -64 5 -45 21 -73 34 -60 3 4 1 18 -7 31 -16 30 -7 56 19 56 27 0 31 -20 10 -59 -15 -29 -16 -37 -5 -53 11 -15 11 -27 0 -70 -24 -91 -18 -173 17 -258 17 -41 41 -87 52 -102 19 -26 19 -28 3 -52 -9 -15 -23 -26 -32 -26 -23 0 -54 19 -54 33 -1 14 -186 97 -217 97 -12 0 -27 9 -33 19 -8 16 -4 26 26 56 32 34 37 35 52 22 10 -9 41 -18 69 -21 63 -5 73 -11 73 -39 1 -32 42 -78 59 -68 12 8 9 21 -14 76 -29 67 -54 91 -82 81 -8 -3 -19 -3 -25 0 -16 10 -201 4 -215 -7 -21 -18 -58 -6 -61 19 -6 40 13 51 74 45 43 -5 58 -2 73 11 24 22 32 63 15 77 -8 6 -12 15 -9 19 9 14 -45 53 -76 55 -22 2 -39 -5 -58 -22 -24 -23 -27 -30 -21 -69 5 -32 3 -44 -5 -44 -8 0 -14 23 -17 63 -5 57 -3 64 21 85 14 12 35 27 46 32 15 6 3 9 -42 9 -56 1 -64 4 -75 26 -12 21 -13 14 -10 -58 2 -45 8 -92 14 -104 20 -41 -30 -74 -52 -34 -7 15 -6 23 5 35 11 11 15 40 15 119 0 60 4 107 10 109 5 2 7 13 3 26 -5 19 -42 46 -114 80 -4 1 -9 -6 -12 -18 -4 -14 3 -26 23 -40 15 -11 32 -20 38 -20 5 0 15 -6 21 -14 15 -18 -2 -56 -24 -56 -22 0 -18 -36 6 -52 29 -19 18 -58 -16 -58 -22 0 -45 33 -32 47 9 9 -67 158 -90 176 -27 22 -29 44 -6 69 20 23 48 23 71 1z m1483 7 c27 -15 25 -64 -3 -84 -22 -16 -88 -154 -88 -186 0 -25 -33 -43 -48 -28 -16 16 -15 45 2 55 23 13 24 47 1 58 -28 15 -27 59 2 63 12 2 27 10 33 18 7 8 17 14 23 14 5 0 2 -9 -8 -20 -10 -11 -15 -23 -12 -27 4 -4 14 2 22 13 21 27 18 7 -4 -30 -10 -17 -21 -44 -25 -61 -4 -22 2 -15 23 25 29 56 51 118 33 91 -7 -10 -12 -5 -21 22 l-12 35 -53 -26 c-54 -27 -76 -59 -59 -85 4 -7 9 -56 9 -110 1 -58 7 -103 14 -112 16 -19 3 -55 -20 -55 -28 0 -44 35 -25 54 11 11 15 38 15 103 0 77 -2 85 -13 63 -11 -21 -21 -26 -72 -31 -33 -3 -53 -7 -45 -8 8 -1 29 -14 46 -30 29 -26 30 -31 26 -89 -5 -71 -22 -84 -22 -18 0 113 -116 126 -167 19 -30 -64 11 -102 97 -90 51 7 75 -10 66 -46 -5 -22 -12 -27 -36 -27 -17 0 -30 5 -30 11 0 10 -230 11 -271 1 -12 -3 -36 -47 -77 -143 -2 -4 5 -9 15 -11 20 -4 63 45 63 73 0 24 12 30 73 35 29 3 54 9 55 15 7 18 34 9 64 -21 34 -35 34 -64 -2 -68 -42 -5 -214 -85 -233 -109 -10 -13 -27 -23 -37 -23 -45 0 -67 65 -32 91 11 8 34 52 52 99 31 80 32 90 25 169 -3 47 -11 93 -16 103 -7 13 -6 30 2 53 11 30 10 37 -5 54 -22 24 -15 51 14 51 24 0 38 -26 21 -43 -13 -13 -15 -47 -2 -47 11 0 31 55 31 87 0 18 -9 28 -34 38 -19 8 -38 20 -41 25 -11 17 3 57 21 64 25 9 62 -20 66 -51 4 -31 32 -42 91 -35 51 6 47 24 -5 20 -40 -3 -43 -1 -43 22 0 33 39 40 55 11 12 -23 40 -27 58 -9 8 8 18 9 35 1 14 -6 60 -14 103 -18 76 -6 82 -5 154 28 42 19 81 42 89 51 16 19 34 20 62 6z m-1155 -338 c5 -4 16 -22 24 -41 12 -31 12 -35 -5 -48 -11 -7 -26 -11 -33 -8 -8 3 -27 5 -43 5 -25 0 -29 4 -29 28 0 53 49 90 86 64z m839 -22 c26 -51 20 -67 -27 -73 -71 -10 -93 15 -64 71 21 40 71 41 91 2z"/> <path d="M1275 1649 c-44 -22 -72 -37 -62 -34 10 3 26 5 35 5 9 0 42 16 72 35 72 45 54 43 -45 -6z"/> <path d="M1337 1650 c-19 -12 -25 -20 -17 -25 7 -4 23 4 38 19 30 30 20 33 -21 6z"/> <path d="M1372 1635 c-26 -29 -30 -67 -7 -59 8 4 15 12 15 19 0 7 11 20 25 29 14 9 23 21 20 26 -10 17 -31 11 -53 -15z"/> <path d="M1228 1603 c-16 -2 -28 -7 -28 -9 0 -14 31 -34 53 -34 20 0 25 5 23 25 0 14 -5 24 -11 23 -5 0 -22 -3 -37 -5z"/> <path d="M1294 1599 c-3 -6 -2 -15 4 -21 13 -13 32 -2 32 18 0 16 -26 19 -36 3z"/> <path d="M1030 1480 c0 -15 5 -20 18 -18 9 2 17 10 17 18 0 8 -8 16 -17 18 -13 2 -18 -3 -18 -18z"/> <path d="M1085 1470 c-4 -6 10 -10 35 -10 47 0 72 -22 81 -73 6 -31 6 -31 8 9 1 48 17 71 51 77 14 2 -19 5 -72 6 -55 0 -99 -3 -103 -9z"/> <path d="M1243 1453 c-9 -3 -13 -27 -13 -71 0 -130 -53 -178 -192 -173 -70 2 -78 0 -88 -19 -6 -12 -10 -23 -8 -25 2 -2 53 -6 113 -10 l110 -7 45 31 c25 16 56 49 69 71 21 38 23 49 16 126 -7 86 -12 94 -52 77z"/> <path d="M1327 1344 c-14 -14 -7 -22 18 -20 14 0 23 6 22 11 -4 12 -31 18 -40 9z"/> <path d="M1141 1281 c-27 -24 -39 -41 -32 -45 18 -11 48 3 76 35 50 60 21 67 -44 10z"/> <path d="M1278 1220 c-9 -16 -32 -39 -50 -50 -38 -23 -23 -27 26 -6 25 10 35 22 40 46 8 43 4 45 -16 10z"/> <path d="M793 1151 c-17 -39 -28 -71 -25 -71 13 0 64 106 61 124 -3 12 -16 -8 -36 -53z"/> <path d="M1075 1113 c0 -37 20 -40 22 -3 1 19 -3 30 -10 30 -7 0 -13 -12 -12 -27z"/> <path d="M1334 1087 c3 -7 9 -20 12 -30 4 -10 14 -17 22 -15 28 5 24 26 -8 42 -21 10 -29 11 -26 3z"/> <path d="M1620 1691 c0 -4 16 -15 36 -25 20 -9 34 -19 31 -22 -3 -3 -19 2 -37 11 l-31 16 17 -26 c12 -18 22 -24 33 -19 21 9 37 8 84 -4 21 -6 37 -8 34 -6 -12 12 -167 82 -167 75z"/> <path d="M1670 1590 c0 -23 25 -27 33 -6 7 16 -1 26 -20 26 -7 0 -13 -9 -13 -20z"/> <path d="M1720 1586 c0 -21 5 -26 23 -26 13 0 32 9 42 20 17 19 17 20 -1 20 -10 0 -29 3 -41 6 -20 5 -23 2 -23 -20z"/> <path d="M1937 1494 c-14 -14 -7 -35 11 -32 9 2 17 10 17 17 0 16 -18 25 -28 15z"/> <path d="M1746 1469 c35 -10 46 -35 37 -80 -3 -18 -1 -29 6 -29 6 0 11 14 11 30 0 41 31 70 75 70 19 0 35 5 35 10 0 6 -39 10 -97 9 -76 -1 -91 -3 -67 -10z"/> <path d="M1698 1383 c-5 -97 11 -142 65 -188 22 -19 35 -35 27 -35 -7 0 -32 20 -56 44 -42 44 -42 44 -33 13 17 -60 25 -62 190 -60 83 0 153 4 156 6 3 3 2 15 -2 27 -6 20 -13 22 -78 20 -98 -3 -132 6 -167 47 -27 31 -30 40 -30 106 0 78 -9 97 -46 97 -21 0 -23 -5 -26 -77z"/> <path d="M1790 1309 c0 -22 22 -49 50 -64 37 -19 50 -19 50 0 0 8 -4 15 -9 15 -5 0 -22 14 -38 30 -28 30 -53 39 -53 19z"/> <path d="M2168 1193 c3 -16 14 -41 24 -58 21 -36 24 -58 3 -31 -8 11 -18 16 -22 12 -4 -4 1 -13 12 -19 20 -11 45 -18 45 -12 0 5 -62 135 -65 135 -1 0 0 -12 3 -27z"/> <path d="M1896 1113 c4 -15 7 -28 8 -29 1 0 36 1 79 4 73 4 78 6 75 26 -3 19 -10 21 -86 24 l-83 3 7 -28z"/> <path d="M1346 848 c-9 -17 -15 -33 -13 -34 8 -8 59 44 53 54 -12 20 -24 14 -40 -20z"/> <path d="M760 838 c2 -18 69 -138 70 -124 0 17 -56 126 -66 126 -2 0 -4 -1 -4 -2z"/> <path d="M940 803 c0 -32 13 -36 91 -28 64 7 69 9 69 31 0 23 -2 24 -80 21 -75 -2 -80 -3 -80 -24z"/> <path d="M1050 759 c-36 -4 -72 -5 -82 -3 -24 7 -30 -9 -12 -34 12 -18 25 -22 68 -22 28 0 57 5 62 10 8 8 27 3 62 -16 64 -33 82 -68 82 -158 0 -62 2 -67 26 -76 14 -6 27 -10 28 -10 2 0 7 40 10 89 8 97 3 115 -43 164 -50 55 -98 68 -201 56z"/> <path d="M1235 738 c19 -16 42 -39 51 -51 16 -22 16 -22 9 8 -9 40 -30 62 -66 67 l-29 5 35 -29z"/> <path d="M1105 681 c-3 -6 2 -16 11 -23 9 -7 26 -22 37 -34 28 -27 57 -37 57 -21 0 21 -30 56 -60 72 -34 18 -37 18 -45 6z"/> <path d="M1313 593 c3 -4 2 -39 -2 -76 -8 -72 -3 -82 30 -72 18 6 20 13 17 53 -3 26 -8 55 -12 65 -6 13 -4 17 10 17 23 0 16 6 -19 14 -16 4 -26 3 -24 -1z"/> <path d="M1202 534 c-3 -44 -31 -75 -78 -84 -32 -6 -26 -8 40 -9 75 -1 78 0 63 17 -8 9 -17 37 -20 62 -2 31 -4 36 -5 14z"/> <path d="M1037 454 c-14 -15 -6 -34 14 -34 14 0 19 5 17 17 -3 18 -20 27 -31 17z"/> <path d="M1208 336 c-15 -11 -13 -14 26 -23 42 -9 44 -9 42 14 -1 18 -7 23 -26 23 -14 0 -33 -7 -42 -14z"/> <path d="M1297 344 c-14 -15 -6 -34 14 -34 14 0 19 5 17 17 -3 18 -20 27 -31 17z"/> <path d="M1290 260 c41 -21 77 -39 80 -40 3 0 6 9 7 19 2 26 -38 63 -56 52 -11 -7 -6 -13 18 -26 18 -9 30 -19 28 -22 -3 -3 -30 9 -60 26 -30 17 -63 31 -73 31 -11 -1 15 -19 56 -40z"/> <path d="M1617 873 c-14 -13 -6 -28 23 -45 35 -20 35 -20 14 20 -15 32 -25 38 -37 25z"/> <path d="M1898 809 c-4 -28 -4 -28 68 -34 82 -8 94 -4 94 30 0 21 -4 24 -28 19 -15 -3 -51 -1 -79 4 -51 9 -51 9 -55 -19z"/> <path d="M1762 760 c-19 -4 -37 -12 -42 -16 -11 -14 -30 -74 -22 -74 4 0 6 -50 5 -111 l-2 -111 27 7 c37 9 42 20 42 93 0 84 18 116 83 147 30 15 53 21 55 15 5 -14 115 -13 130 2 7 7 12 20 12 30 0 16 -10 18 -82 19 -46 1 -99 1 -118 0 -35 -3 -89 -36 -122 -76 -11 -13 -17 -15 -18 -7 0 14 43 59 75 79 23 14 22 14 -23 3z"/> <path d="M1860 682 c-23 -7 -51 -34 -66 -64 -13 -25 -13 -27 4 -20 34 13 97 71 87 81 -6 5 -17 6 -25 3z"/> <path d="M1653 592 c-25 -4 -30 -17 -12 -28 6 -3 18 1 27 10 19 18 15 23 -15 18z"/> <path d="M1780 510 c0 -36 -5 -52 -17 -59 -13 -8 5 -10 67 -10 65 1 76 3 48 9 -52 10 -78 36 -78 77 0 18 -4 33 -10 33 -5 0 -10 -22 -10 -50z"/> <path d="M1633 475 c2 -47 19 -59 45 -33 14 14 16 42 2 33 -5 -3 -10 0 -10 7 0 7 -9 19 -20 25 -18 12 -19 10 -17 -32z"/> <path d="M1937 454 c-14 -15 -6 -34 14 -34 14 0 19 5 17 17 -3 18 -20 27 -31 17z"/> <path d="M1677 343 c-4 -3 -7 -12 -7 -20 0 -15 26 -18 34 -4 7 11 -18 33 -27 24z"/> <path d="M1720 326 c0 -20 4 -23 28 -19 52 9 57 12 36 28 -10 8 -29 15 -41 15 -18 0 -23 -6 -23 -24z"/> <path d="M1637 275 c-21 -30 -12 -32 26 -6 24 15 26 19 12 25 -21 8 -17 10 -38 -19z"/> <path d="M1745 293 c-25 -7 -127 -64 -122 -69 2 -2 35 11 73 29 38 19 76 37 84 40 13 5 13 5 0 5 -8 0 -24 -3 -35 -5z"/> </g> </svg> 